<svg fill="#FFFFFF" xmlns="http://www.w3.org/2000/svg"  viewBox="1 0 23 23" width="48px" height="48px"><path d="M 12 2 C 6.477 2 2 6.477 2 12 C 2 17.523 6.477 22 12 22 C 17.523 22 22 17.523 22 12 C 22 6.477 17.523 2 12 2 z M 12 4 C 16.181463 4 19.61786 7.2270498 19.964844 11.320312 C 19.481459 10.413126 18.757219 9.6236674 17.802734 9.0898438 C 17.051734 8.6688438 16.244547 8.4511563 15.435547 8.4101562 C 15.100547 9.0301562 14.604047 9.5503906 13.998047 9.9003906 C 13.400047 10.245391 12.708891 10.425531 11.962891 10.394531 C 11.669891 10.382531 11.371656 10.350203 11.097656 10.283203 C 9.5036563 9.8312031 8.3335625 8.3726719 8.3515625 6.6386719 C 8.3587644 5.8896788 8.5946558 5.189527 8.9804688 4.5957031 C 9.9130649 4.2139454 10.931652 4 12 4 z M 7.4199219 5.453125 C 6.880601 6.3227352 6.5630006 7.3430796 6.578125 8.4316406 C 6.589125 9.2926406 6.8048281 10.097359 7.1738281 10.818359 C 7.8788281 10.798359 8.5756406 10.970313 9.1816406 11.320312 C 9.7796406 11.665313 10.282906 12.174937 10.628906 12.835938 C 10.764906 13.094938 10.880984 13.347375 10.958984 13.609375 C 11.380984 15.224375 10.700687 16.982844 9.1796875 17.839844 C 8.5316856 18.205587 7.8142359 18.352907 7.1113281 18.318359 C 5.2225061 16.853667 4 14.569541 4 12 C 4 9.2930335 5.3561254 6.901436 7.4199219 5.453125 z M 16.671875 11.003906 C 17.285023 11.019996 17.9025 11.186984 18.46875 11.521484 C 19.110994 11.900775 19.598406 12.450422 19.919922 13.078125 C 19.390421 16.979679 16.044369 20 12 20 C 10.790885 20 9.647738 19.722586 8.6191406 19.240234 C 9.6423128 19.272696 10.683437 19.037909 11.619141 18.480469 C 12.359141 18.040469 12.950625 17.449531 13.390625 16.769531 C 13.020625 16.169531 12.820313 15.479297 12.820312 14.779297 C 12.820312 14.089297 13.010156 13.399531 13.410156 12.769531 C 13.567156 12.522531 13.715438 12.305328 13.898438 12.111328 C 14.639688 11.370078 15.649961 10.97709 16.671875 11.003906 z"/></svg>